<svg width="19" height="24" viewBox="0 0 19 24" fill="none" xmlns="http://www.w3.org/2000/svg">
<path d="M15.2286 12.192C15.2189 10.3016 16.0222 8.87484 17.6481 7.82408C16.7384 6.43851 15.3641 5.67619 13.5494 5.52682C11.8315 5.3826 9.95398 6.59304 9.26683 6.59304C8.54097 6.59304 6.87633 5.57833 5.56978 5.57833C2.86957 5.62468 0 7.87044 0 12.4392C0 13.7887 0.232276 15.1829 0.696827 16.6217C1.31623 18.512 3.55188 23.1477 5.88432 23.0705C7.10377 23.0396 7.96512 22.1485 9.55234 22.1485C11.0912 22.1485 11.8896 23.0705 13.2494 23.0705C15.6012 23.0344 17.6239 18.8211 18.2143 16.9256C15.0592 15.3443 15.2286 12.2898 15.2286 12.192ZM12.4897 3.73434C13.8107 2.06547 13.6897 0.545986 13.651 0C12.4848 0.0721113 11.1347 0.844733 10.3653 1.79763C9.51846 2.81749 9.02004 4.07944 9.1265 5.50106C10.3895 5.60408 11.5412 4.91387 12.4897 3.73434Z" fill="white"/>
</svg>
