<?xml version="1.0" encoding="utf-8"?>
<svg width="130" height="41" viewBox="0 0 130 41" fill="none" xmlns="http://www.w3.org/2000/svg">
  <path d="M52.5632 40.331C52.6303 40.2639 52.675 40.1745 52.7421 40.1074C55.0224 38.0282 56.2968 35.4349 56.7215 32.3944C57.124 29.4209 56.878 26.5369 55.5814 23.8094C53.9493 20.3664 51.1994 18.1531 47.5553 17.1694C43.0169 15.9175 38.7468 16.5658 34.9461 19.4275C32.5092 21.2607 31.1008 23.7647 30.4971 26.7157C29.8264 30.0469 30.0724 33.3333 31.5256 36.4409C32.241 37.9612 33.2694 39.2355 34.5214 40.331C31.7044 40.331 28.8875 40.331 26.0705 40.331C25.5563 39.0343 24.9527 37.7823 24.5503 36.4633C23.7231 33.7805 23.5442 31.0082 23.7454 28.236C23.9466 25.2402 24.6621 22.3785 26.1152 19.7405C28.5968 15.2244 32.3751 12.318 37.2712 10.8648C42.5698 9.29988 47.7565 9.61288 52.7421 12.0274C58.1971 14.6655 61.5059 19.0474 62.8026 24.9272C63.7863 29.4433 63.518 33.9146 61.8859 38.2518C61.6177 38.9672 61.26 39.6379 60.947 40.331C58.1524 40.331 55.3578 40.331 52.5632 40.331Z" style="fill: rgb(70, 146, 146);"/>
  <path d="M130.001 40.0525C128.347 40.0525 126.67 40.0525 125.016 40.0525C124.77 40.0525 124.658 39.9854 124.546 39.7618C124.01 38.5546 123.428 37.3697 122.892 36.1624C122.802 35.9612 122.69 35.8941 122.467 35.8941C117.951 35.8941 113.412 35.8941 108.896 35.8941C108.65 35.8941 108.539 35.9835 108.449 36.2071C107.913 37.4144 107.354 38.5993 106.773 39.8065C106.728 39.9183 106.571 40.0525 106.46 40.0525C104.805 40.0748 103.128 40.0525 101.474 40.0525C101.452 40.0525 101.407 40.0301 101.34 40.0301C101.698 39.2253 102.055 38.4428 102.435 37.6603C106.638 28.494 110.864 19.3278 115.067 10.1615C115.134 10.0051 115.201 9.78148 115.313 9.75913C115.536 9.69206 115.805 9.71441 116.028 9.75913C116.095 9.78148 116.185 9.93798 116.229 10.0274C118.197 14.3199 120.164 18.6347 122.154 22.9496C124.68 28.494 127.229 34.0385 129.755 39.5606C129.822 39.6948 129.912 39.8065 130.001 39.9407C130.001 39.963 130.001 40.0077 130.001 40.0525ZM120.544 31.0874C118.935 27.5551 117.325 24.0674 115.693 20.5127C114.038 24.0898 112.429 27.5774 110.797 31.1098C114.038 31.0874 117.258 31.0874 120.544 31.0874Z" style="fill: rgb(70, 146, 146);"/>
  <path d="M99.9406 0.669922C99.8736 0.804062 99.8289 0.960559 99.7394 1.0947C97.2131 5.38719 93.5243 8.20413 88.7847 9.56789C82.2341 11.4459 76.0637 10.5739 70.4298 6.66152C68.2836 5.16362 66.6068 3.24094 65.3325 0.96056C65.2878 0.871133 65.2431 0.759349 65.2207 0.669922C68.0376 0.669922 70.8546 0.669922 73.6715 0.669922C73.7833 0.759349 73.8727 0.871133 73.9845 0.96056C76.3767 2.81617 79.1042 3.71043 82.1 3.82222C85.2747 3.934 88.2034 3.12916 90.8191 1.2512C91.065 1.07234 91.2663 0.871132 91.4898 0.669922C94.3291 0.669922 97.1461 0.669922 99.9406 0.669922Z" style="fill: rgb(70, 146, 146);"/>
  <path d="M69.3752 10.1247C69.9118 10.1247 70.426 10.1024 70.9402 10.1471C71.0296 10.1471 71.1638 10.2812 71.2085 10.393C73.2206 14.216 75.2327 18.0166 77.2448 21.8396C78.9215 25.0143 80.5759 28.1889 82.2527 31.3636C82.275 31.4307 82.3197 31.4977 82.3868 31.6095C82.4762 31.4754 82.5433 31.3636 82.588 31.2518C86.2545 24.2989 89.8987 17.3683 93.5428 10.4154C93.6546 10.2142 93.7664 10.1471 93.9899 10.1471C94.4371 10.1694 94.9066 10.1471 95.4208 10.1471C96.9187 20.1182 98.4166 30.0669 99.8921 40.038C98.2153 40.038 96.5386 40.038 94.8395 40.038C93.9676 34.3817 93.0957 28.7255 92.2014 22.9575C91.9108 23.5164 91.6648 23.9859 91.4189 24.433C88.7585 29.4856 86.098 34.5606 83.4599 39.6356C83.3034 39.9486 83.1246 40.1051 82.7445 40.0604C82.3421 40.0156 81.8726 40.1721 81.5596 39.9933C81.269 39.8144 81.1348 39.3449 80.956 38.9872C78.2285 33.8005 75.4786 28.6137 72.7511 23.427C72.684 23.2928 72.6169 23.181 72.5499 23.0469C72.5275 23.0469 72.5052 23.0469 72.4604 23.0469C71.5885 28.6808 70.739 34.337 69.8671 39.9933C68.1903 39.9933 66.5136 39.9933 64.8145 39.9933C66.4018 30.0445 67.8773 20.0958 69.3752 10.1247Z" style="fill: rgb(70, 146, 146);"/>
  <path d="M13.9059 27.3483C16.7899 31.5961 19.6739 35.7991 22.5803 40.0693C22.4685 40.0916 22.379 40.0916 22.2896 40.0916C20.4564 40.0916 18.6008 40.0916 16.7675 40.0916C16.5663 40.0916 16.4545 40.0469 16.3204 39.8681C13.7494 36.0451 11.156 32.2444 8.58497 28.4214C8.42847 28.1755 8.24962 28.0861 7.95898 28.1084C7.02 28.1308 6.10338 28.1084 5.11968 28.1084C5.11968 32.1103 5.11968 36.0898 5.11968 40.0916C3.39822 40.0916 1.72147 40.0916 0 40.0916C0 30.0982 0 20.1047 0 10.0889C0.111783 10.0889 0.20121 10.0666 0.312994 10.0666C3.44293 10.0666 6.57287 10.0442 9.7028 10.0666C11.6925 10.0889 13.5929 10.4914 15.292 11.5421C17.7736 13.0624 19.182 15.2533 19.5174 18.1597C19.9645 22.1168 17.7736 25.761 14.0847 27.2812C14.04 27.2812 13.9953 27.3036 13.9059 27.3483ZM5.11968 23.2347C5.20911 23.257 5.25382 23.257 5.29854 23.257C6.77408 23.257 8.22726 23.2794 9.7028 23.2347C10.3064 23.2123 10.9324 23.1005 11.5137 22.8993C13.034 22.3628 14.0176 21.2896 14.2412 19.6576C14.4871 18.0032 13.8611 16.6842 12.4974 15.7228C11.6031 15.0968 10.5524 14.8733 9.45688 14.8733C8.11548 14.8733 6.77408 14.8733 5.41032 14.8733C5.29854 14.8733 5.20911 14.8956 5.09733 14.8956C5.11968 17.7126 5.11968 20.4624 5.11968 23.2347Z" style="fill: rgb(70, 146, 146);"/>
</svg>