<svg width="38" height="24" viewBox="0 0 38 24" fill="none" xmlns="http://www.w3.org/2000/svg">
<path d="M34.3894 0H3.61507C3.48688 0 3.35846 0 3.23049 0.00067947C3.12246 0.00158543 3.01465 0.00271788 2.90661 0.00566225C2.67129 0.012004 2.43393 0.0260463 2.20155 0.0677205C1.9685 0.107648 1.7427 0.182074 1.53159 0.288548C1.10719 0.504411 0.762223 0.849374 0.546361 1.27378C0.439697 1.48497 0.365262 1.71095 0.325533 1.94419C0.283406 2.17679 0.26959 2.41393 0.263248 2.64903C0.260488 2.75697 0.258827 2.86493 0.258265 2.97291C0.257812 3.10065 0.257812 3.22884 0.257812 3.35726V20.6425C0.257812 20.7709 0.257812 20.8989 0.258265 21.0273C0.258945 21.1351 0.260304 21.2432 0.263248 21.3512C0.26959 21.5858 0.283632 21.8232 0.325533 22.0556C0.365181 22.2888 0.439539 22.5148 0.546134 22.726C0.653306 22.9369 0.793196 23.1296 0.960611 23.2967C1.12774 23.4642 1.32039 23.6041 1.53137 23.7112C1.74585 23.8206 1.96555 23.8902 2.20178 23.9325C2.43393 23.974 2.67129 23.988 2.90661 23.9943C3.01465 23.9968 3.12246 23.9982 3.23049 23.9989C3.35846 23.9998 3.48688 23.9998 3.61507 23.9998H34.3894C34.5174 23.9998 34.6458 23.9998 34.7737 23.9989C34.8815 23.9984 34.9894 23.9968 35.0978 23.9943C35.3327 23.988 35.5701 23.974 35.8029 23.9325C36.036 23.8925 36.2618 23.818 36.4729 23.7112C36.8971 23.4951 37.2419 23.1502 37.4581 22.726C37.5675 22.5115 37.6368 22.2918 37.6787 22.0556C37.7208 21.8232 37.7344 21.5858 37.7408 21.3512C37.7437 21.2432 37.7453 21.1351 37.7457 21.0273C37.7466 20.8989 37.7466 20.7709 37.7466 20.6425V3.35749C37.7466 3.22907 37.7466 3.10087 37.7457 2.97268C37.7453 2.86478 37.7436 2.75689 37.7408 2.64903C37.7344 2.41393 37.7208 2.17679 37.6787 1.94419C37.6392 1.71091 37.5649 1.4849 37.4581 1.27378C37.2421 0.849448 36.8972 0.504513 36.4729 0.288548C36.2617 0.182184 36.0359 0.107836 35.8029 0.067947C35.5701 0.0260463 35.3327 0.0122305 35.0978 0.00588874C34.9898 0.00314533 34.8818 0.00148432 34.7737 0.000905959C34.6458 0 34.5174 0 34.3894 0Z" fill="black"/>
<path d="M34.3882 0.800781L34.7669 0.801461C34.8693 0.80214 34.9719 0.803273 35.075 0.805991C35.2546 0.810973 35.4643 0.820712 35.66 0.855818C35.8299 0.886394 35.9725 0.932825 36.1093 1.00258C36.3831 1.14178 36.6055 1.36442 36.7444 1.63834C36.8137 1.77423 36.8599 1.91602 36.8905 2.08747C36.9254 2.28089 36.9351 2.4913 36.9399 2.67181C36.9428 2.77373 36.9442 2.87566 36.9444 2.97984C36.9455 3.106 36.9455 3.23192 36.9455 3.3583V20.6436C36.9455 20.7699 36.9455 20.8959 36.9446 21.0245C36.9442 21.1264 36.9428 21.2284 36.9401 21.3303C36.9351 21.5106 36.9254 21.721 36.8901 21.9167C36.8644 22.0723 36.8151 22.2232 36.744 22.364C36.6048 22.638 36.382 22.8606 36.108 22.9997C35.9721 23.069 35.8299 23.1155 35.6616 23.1458C35.462 23.1814 35.2432 23.1911 35.0786 23.1957C34.9751 23.1979 34.872 23.1995 34.7663 23.2C34.6406 23.2009 34.5142 23.2009 34.3882 23.2009H3.60895C3.48439 23.2009 3.35982 23.2009 3.23298 23.2C3.13105 23.1995 3.02913 23.1982 2.92722 23.1959C2.75871 23.1913 2.53992 23.1814 2.34197 23.146C2.18546 23.12 2.03381 23.0703 1.89216 22.9988C1.75629 22.9298 1.63229 22.8396 1.5248 22.7316C1.41697 22.6239 1.32691 22.4999 1.25799 22.364C1.18681 22.2224 1.13749 22.0708 1.11168 21.9144C1.07635 21.7189 1.06638 21.5094 1.06185 21.3305C1.05929 21.2282 1.05778 21.1259 1.05732 21.0236L1.05664 20.7231V3.27903L1.05709 2.97893C1.05756 2.87647 1.05907 2.77402 1.06162 2.67159C1.06661 2.49221 1.07635 2.2827 1.1119 2.08566C1.13776 1.92958 1.18709 1.7783 1.25822 1.63698C1.32707 1.50154 1.41676 1.37788 1.52547 1.26939C1.63322 1.16147 1.75736 1.07127 1.89329 1.00213C2.03459 0.931144 2.18577 0.881821 2.34174 0.855818C2.53766 0.820712 2.74761 0.810973 2.92745 0.805991C3.02982 0.803273 3.13242 0.80214 3.23411 0.801461L3.61394 0.800781H34.3882Z" fill="white"/>
<path d="M10.1106 8.10171C10.4286 7.70422 10.6443 7.17039 10.5874 6.625C10.1222 6.6481 9.55461 6.93189 9.22575 7.32984C8.93063 7.67048 8.66949 8.22651 8.73743 8.74902C9.25972 8.79432 9.78155 8.48811 10.1106 8.10171Z" fill="black"/>
<path d="M10.5823 8.8507C9.82357 8.8054 9.17898 9.28103 8.81683 9.28103C8.45444 9.28103 7.89977 8.87335 7.2998 8.88445C6.51909 8.89577 5.79477 9.33742 5.39841 10.0395C4.5835 11.4438 5.18325 13.5275 5.97596 14.6713C6.36077 15.2375 6.82462 15.8603 7.43569 15.8379C8.01324 15.8153 8.2395 15.4642 8.94117 15.4642C9.64261 15.4642 9.84645 15.8379 10.4577 15.8266C11.0915 15.8153 11.4878 15.2604 11.8726 14.6941C12.3143 14.0486 12.4948 13.4258 12.5061 13.3918C12.4948 13.3805 11.284 12.916 11.2727 11.5231C11.2613 10.3566 12.2235 9.80173 12.2688 9.76753C11.7254 8.96394 10.8765 8.87335 10.5821 8.8507" fill="black"/>
<path d="M18.1439 7.27344C19.7923 7.27344 20.9404 8.40974 20.9404 10.064C20.9404 11.7242 19.7687 12.8664 18.1027 12.8664H16.2776V15.7691H14.959V7.27344H18.1439ZM16.2776 11.7595H17.7906C18.9389 11.7595 19.5921 11.1414 19.5921 10.0699C19.5921 8.99861 18.9386 8.38618 17.7964 8.38618H16.2776V11.7595Z" fill="black"/>
<path d="M21.2676 14.0095C21.2676 12.9203 22.0977 12.2963 23.6283 12.2021L25.2708 12.102V11.6309C25.2708 10.9424 24.8176 10.5655 24.011 10.5655C23.3456 10.5655 22.8627 10.9068 22.7631 11.4307H21.5736C21.6091 10.3299 22.6451 9.5293 24.0464 9.5293C25.5534 9.5293 26.5366 10.3182 26.5366 11.5428V15.7698H25.3181V14.7512H25.2887C24.9412 15.4164 24.1757 15.8343 23.3456 15.8343C22.1212 15.8343 21.2676 15.1046 21.2676 14.0095ZM25.2708 13.4621V12.9851L23.8049 13.0793C22.9805 13.1323 22.5511 13.4383 22.5511 13.9739C22.5511 14.4921 22.9984 14.8278 23.6989 14.8278C24.5936 14.8278 25.2708 14.2566 25.2708 13.4621Z" fill="black"/>
<path d="M27.6573 18.0418V17.0235C27.7398 17.035 27.9398 17.0468 28.0458 17.0468C28.6285 17.0468 28.9583 16.7999 29.1585 16.1637L29.2763 15.7871L27.0449 9.60547H28.4224L29.9768 14.6213H30.0063L31.5604 9.60547H32.9029L30.589 16.0989C30.059 17.5886 29.4527 18.0773 28.1694 18.0773C28.0693 18.0773 27.7455 18.0655 27.6573 18.0418Z" fill="black"/>
</svg>
