<svg width="38" height="24" viewBox="0 0 38 24" fill="none" xmlns="http://www.w3.org/2000/svg">
<path opacity="0.07" d="M35.002 0H3.00195C1.30195 0 0.00195312 1.3 0.00195312 3V21C0.00195312 22.7 1.40195 24 3.00195 24H35.002C36.702 24 38.002 22.7 38.002 21V3C38.002 1.3 36.602 0 35.002 0Z" fill="black"/>
<path d="M35.002 1C36.102 1 37.002 1.9 37.002 3V21C37.002 22.1 36.102 23 35.002 23H3.00195C1.90195 23 1.00195 22.1 1.00195 21V3C1.00195 1.9 1.90195 1 3.00195 1H35.002Z" fill="white"/>
<path d="M18.0942 11.9757V15.1757H17.0762V7.27574H19.7672C20.0896 7.27028 20.4099 7.32861 20.7097 7.44737C21.0096 7.56613 21.2829 7.74297 21.5142 7.96774C21.7332 8.17214 21.9098 8.41769 22.0339 8.69038C22.158 8.96306 22.2271 9.25753 22.2373 9.55694C22.2475 9.85636 22.1986 10.1549 22.0934 10.4354C21.9882 10.7159 21.8288 10.9729 21.6242 11.1917L21.5142 11.3077C21.0442 11.7547 20.4162 11.9977 19.7672 11.9817L18.0942 11.9757ZM18.0942 8.24374V11.0317H19.7922C20.1692 11.0437 20.5332 10.8967 20.7972 10.6277C20.986 10.4309 21.1128 10.1829 21.1618 9.91458C21.2108 9.64624 21.1798 9.36943 21.0727 9.11857C20.9656 8.86771 20.7871 8.65387 20.5594 8.50366C20.3318 8.35345 20.0649 8.2735 19.7922 8.27374L18.0942 8.24374ZM24.5782 9.59174C25.2282 9.56174 25.8642 9.77974 26.3562 10.2047C26.8012 10.6347 27.0382 11.2347 27.0062 11.8537V15.1877H26.0372V14.4217H25.9882C25.8144 14.709 25.5687 14.946 25.2753 15.1093C24.9819 15.2726 24.6509 15.3565 24.3152 15.3527C23.7671 15.3705 23.2326 15.1801 22.8192 14.8197C22.6233 14.66 22.4663 14.4577 22.3601 14.2284C22.2539 13.999 22.2013 13.7485 22.2062 13.4957C22.1946 13.2403 22.2442 12.9859 22.3509 12.7535C22.4575 12.5211 22.618 12.3176 22.8192 12.1597C23.3126 11.8049 23.9098 11.6238 24.5172 11.6447C25.0342 11.6247 25.5472 11.7377 26.0072 11.9757V11.7677C26.0105 11.5958 25.9748 11.4253 25.9025 11.2692C25.8303 11.1131 25.7235 10.9755 25.5902 10.8667C25.3225 10.6234 24.9719 10.4917 24.6102 10.4987C24.3475 10.4963 24.0885 10.5608 23.8577 10.6863C23.6269 10.8117 23.4319 10.994 23.2912 11.2157L22.3962 10.6517C22.6392 10.3035 22.9673 10.0233 23.3492 9.83779C23.7312 9.65225 24.1542 9.56754 24.5782 9.59174ZM23.2912 13.5197C23.2888 13.6493 23.3182 13.7774 23.377 13.8928C23.4358 14.0083 23.522 14.1075 23.6282 14.1817C23.8512 14.3577 24.1282 14.4507 24.4132 14.4447C24.8422 14.4437 25.2532 14.2747 25.5592 13.9727C25.8642 13.6867 26.0372 13.2877 26.0372 12.8697C25.6522 12.5961 25.1844 12.4639 24.7132 12.4957C24.3473 12.4813 23.9863 12.5844 23.6832 12.7897C23.5631 12.8701 23.4646 12.9786 23.3962 13.1059C23.3279 13.2332 23.2918 13.3753 23.2912 13.5197ZM32.5772 9.76974L29.1872 17.5597H28.1392L29.4202 14.8317L27.1962 9.76974H28.2992L29.9112 13.6547L31.4802 9.76974H32.5772Z" fill="#5F6368"/>
<path d="M13.988 11.2833C13.988 10.9753 13.964 10.6673 13.915 10.3633H9.625V12.1103H12.076C12.0261 12.3879 11.9207 12.6526 11.766 12.8886C11.6114 13.1245 11.4107 13.3268 11.176 13.4833V14.6173H12.64C13.0851 14.1866 13.4351 13.6674 13.6673 13.0931C13.8994 12.5189 14.0087 11.9023 13.988 11.2833Z" fill="#4285F4"/>
<path d="M9.63012 15.7219C10.7364 15.7523 11.8128 15.36 12.6401 14.6249L11.1741 13.4849C10.8219 13.7108 10.4228 13.8533 10.0071 13.9017C9.59152 13.9501 9.17033 13.9031 8.77561 13.7643C8.38088 13.6255 8.02301 13.3984 7.72921 13.1005C7.43542 12.8026 7.21343 12.4416 7.08012 12.0449H5.57812V13.2149C5.95397 13.968 6.53217 14.6014 7.24788 15.0442C7.96359 15.487 8.78851 15.7217 9.63012 15.7219Z" fill="#34A853"/>
<path d="M7.08088 12.0495C6.89068 11.4868 6.89068 10.8772 7.08088 10.3145V9.14453H5.57888C5.25867 9.77599 5.0918 10.474 5.0918 11.182C5.0918 11.89 5.25867 12.5881 5.57888 13.2195L7.08088 12.0495Z" fill="#FBBC04"/>
<path d="M9.63012 8.43921C10.2771 8.42739 10.9026 8.67182 11.3701 9.11921L12.6701 7.82621C11.8412 7.04822 10.7418 6.62387 9.60512 6.64321C8.76849 6.64741 7.94937 6.88322 7.23856 7.32449C6.52775 7.76577 5.95303 8.39527 5.57812 9.14321L7.08012 10.3142C7.25575 9.77429 7.59621 9.30302 8.05363 8.96668C8.51105 8.63035 9.0624 8.44587 9.63012 8.43921Z" fill="#EA4335"/>
</svg>
