<svg width="38" height="24" viewBox="0 0 38 24" fill="none" xmlns="http://www.w3.org/2000/svg">
<path d="M0.501953 2C0.501953 1.17157 1.17353 0.5 2.00195 0.5H36.002C36.8304 0.5 37.502 1.17157 37.502 2V22C37.502 22.8284 36.8304 23.5 36.002 23.5H2.00195C1.17353 23.5 0.501953 22.8284 0.501953 22V2Z" stroke="#E2E2E2"/>
<path d="M19.0033 17.85C17.3501 19.2432 15.2563 20.005 13.0943 20C8.06433 20 3.98633 15.97 3.98633 11C3.98633 6.03002 8.06433 2.00002 13.0943 2.00002C15.3493 2.00002 17.4123 2.81002 19.0033 4.15002C20.6563 2.75705 22.7497 1.99526 24.9113 2.00002C29.9413 2.00002 34.0193 6.03002 34.0193 11C34.0193 15.97 29.9413 20 24.9113 20C22.7497 20.0048 20.6563 19.243 19.0033 17.85Z" fill="#ED0006"/>
<path d="M19.0033 17.85C20.0049 17.0115 20.8105 15.9636 21.3634 14.7801C21.9162 13.5966 22.203 12.3063 22.2033 11C22.2033 8.25702 20.9613 5.80002 19.0033 4.15002C20.6563 2.75705 22.7497 1.99526 24.9113 2.00002C29.9413 2.00002 34.0193 6.03002 34.0193 11C34.0193 15.97 29.9413 20 24.9113 20C22.7497 20.0048 20.6563 19.243 19.0033 17.85Z" fill="#F9A000"/>
<path d="M19.0033 17.85C20.9613 16.2 22.2033 13.743 22.2033 11C22.2033 8.25702 20.9613 5.80002 19.0033 4.15002C18.0017 4.98856 17.1962 6.03647 16.6433 7.21996C16.0904 8.40346 15.8037 9.69376 15.8033 11C15.8033 13.743 17.0443 16.2 19.0033 17.85Z" fill="#FF5E00"/>
</svg>
