<svg width="38" height="24" viewBox="0 0 38 24" fill="none" xmlns="http://www.w3.org/2000/svg">
<path d="M0.501953 2C0.501953 1.17157 1.17353 0.5 2.00195 0.5H36.002C36.8304 0.5 37.502 1.17157 37.502 2V22C37.502 22.8284 36.8304 23.5 36.002 23.5H2.00195C1.17353 23.5 0.501953 22.8284 0.501953 22V2Z" fill="white"/>
<path d="M0.501953 2C0.501953 1.17157 1.17353 0.5 2.00195 0.5H36.002C36.8304 0.5 37.502 1.17157 37.502 2V22C37.502 22.8284 36.8304 23.5 36.002 23.5H2.00195C1.17353 23.5 0.501953 22.8284 0.501953 22V2Z" stroke="#E2E2E2"/>
<path d="M24.2493 6.00007C25.0951 5.99613 25.9338 6.16401 26.72 6.49464L26.3451 9.00262L26.0958 8.88005C25.4539 8.56515 24.7516 8.41257 24.0445 8.43434C22.9573 8.43434 22.4691 8.94091 22.4578 9.43548C22.4578 9.97976 23.0488 10.338 24.0121 10.8695C25.5988 11.6975 26.3338 12.7106 26.3233 14.0323C26.3006 16.4434 24.4193 18 21.5293 18C20.294 17.9871 19.104 17.7026 18.458 17.382L18.8433 14.7737L19.206 14.9597C20.1013 15.3926 20.6906 15.5769 21.79 15.5769C22.5833 15.5769 23.4333 15.2186 23.4438 14.4412C23.4438 13.9337 23.082 13.5635 22.0166 12.9943C20.974 12.438 19.58 11.5115 19.6026 9.84348C19.614 7.58149 21.5293 6.00007 24.2493 6.00007ZM13.9813 17.8269H16.7353L18.458 6.21092H15.704L13.9813 17.8269Z" fill="#00579F"/>
<path fill-rule="evenodd" clip-rule="evenodd" d="M33.7798 6.21092H31.65C30.9926 6.21092 30.494 6.42092 30.2098 7.17435L26.1193 17.8269H29.0093L29.5873 16.0843H33.1233C33.2026 16.4923 33.452 17.8269 33.452 17.8269H36.002L33.7798 6.21092ZM30.3798 13.7109L31.4808 10.4623C31.4751 10.4709 31.5115 10.3629 31.565 10.2009C31.6443 9.9609 31.7617 9.6069 31.8426 9.34976L32.0345 10.35C32.0345 10.35 32.5566 13.1306 32.67 13.7117H30.3806L30.3798 13.7109Z" fill="#00579F"/>
<path d="M8.98329 14.1317L11.6806 6.21092H14.5933L10.264 17.8149H7.35129L4.88062 7.65606C6.62595 8.6572 8.18995 10.6715 8.68862 12.5246L8.98329 14.1317Z" fill="#00579F"/>
<path d="M6.47862 6.21092H2.04729L2.00195 6.44492C5.45862 7.4092 7.74795 9.7329 8.68862 12.5255L7.72529 7.1872C7.56662 6.44492 7.07929 6.23578 6.47862 6.21007V6.21092Z" fill="#FAA61A"/>
</svg>
