<svg width="24" height="25" viewBox="0 0 24 25" fill="none" xmlns="http://www.w3.org/2000/svg">
<g clip-path="url(#clip0_934_3454)">
<path d="M14.8544 20.857C14.6744 20.857 14.5018 20.7893 14.3745 20.6687C14.2473 20.5482 14.1758 20.3846 14.1758 20.2141C14.1758 20.0436 14.2473 19.8801 14.3745 19.7596C14.5018 19.639 14.6744 19.5713 14.8544 19.5713C15.0343 19.5713 15.2069 19.639 15.3342 19.7596C15.4614 19.8801 15.5329 20.0436 15.5329 20.2141C15.5329 20.3846 15.4614 20.5482 15.3342 20.6687C15.2069 20.7893 15.0343 20.857 14.8544 20.857Z" fill="#0E1422" stroke="#5C5F6A" stroke-width="1.42857" stroke-linecap="round" stroke-linejoin="round"/>
<path d="M6.03209 20.857C5.85212 20.857 5.67952 20.7893 5.55226 20.6687C5.42501 20.5482 5.35352 20.3846 5.35352 20.2141C5.35352 20.0436 5.42501 19.8801 5.55226 19.7596C5.67952 19.639 5.85212 19.5713 6.03209 19.5713C6.21206 19.5713 6.38465 19.639 6.51191 19.7596C6.63917 19.8801 6.71066 20.0436 6.71066 20.2141C6.71066 20.3846 6.63917 20.5482 6.51191 20.6687C6.38465 20.7893 6.21206 20.857 6.03209 20.857Z" stroke="#5C5F6A" stroke-width="1.42857" stroke-linecap="round" stroke-linejoin="round"/>
<path d="M13.0324 11.8564H8.96094" stroke="#5C5F6A" stroke-width="1.42857" stroke-linecap="round" stroke-linejoin="round"/>
<path d="M10.998 9.92871V13.7859" stroke="#5C5F6A" stroke-width="1.42857" stroke-linecap="round" stroke-linejoin="round"/>
<path d="M0.677734 4.14258H4.07059L4.42752 7.35686M4.42752 7.35686L5.30016 15.2061C5.33535 15.5219 5.49263 15.8142 5.7417 16.0266C5.99077 16.2391 6.31401 16.3567 6.64916 16.3569H15.2263C15.5289 16.3569 15.8227 16.2611 16.0612 16.0847C16.2997 15.9084 16.4692 15.6616 16.5427 15.3836L18.2392 8.95501C18.2893 8.76543 18.2931 8.56752 18.2504 8.37632C18.2077 8.18512 18.1195 8.00566 17.9926 7.85159C17.8657 7.69752 17.7034 7.57288 17.518 7.48715C17.3326 7.40143 17.129 7.35687 16.9227 7.35686H4.42752Z" stroke="#5C5F6A" stroke-width="1.42857" stroke-linecap="round" stroke-linejoin="round"/>
</g>
<defs>
<clipPath id="clip0_934_3454">
<rect width="19" height="18" fill="white" transform="translate(0 3.5)"/>
</clipPath>
</defs>
</svg>
