<svg width="25" height="24" viewBox="0 0 25 24" fill="none" xmlns="http://www.w3.org/2000/svg">
<path fill-rule="evenodd" clip-rule="evenodd" d="M5.38281 6.73877L6.08631 15.1061C6.13765 15.7501 6.66381 16.2331 7.30665 16.2331H7.31131H20.0408H20.0431C20.651 16.2331 21.1701 15.7804 21.2565 15.1796L22.3648 7.52744C22.3905 7.34544 22.345 7.16344 22.2341 7.01644C22.1245 6.86827 21.9635 6.7726 21.7815 6.74694C21.5376 6.75627 11.4191 6.74227 5.38281 6.73877ZM7.30483 17.9831C5.76833 17.9831 4.4675 16.7837 4.34266 15.2496L3.274 2.5399L1.51583 2.23657C1.03867 2.15257 0.720165 1.70107 0.801832 1.2239C0.885832 0.746735 1.34667 0.436402 1.81333 0.511068L4.24 0.931068C4.63083 0.999902 4.92833 1.32424 4.96216 1.7209L5.23633 4.98874C21.8917 4.99574 21.9453 5.0039 22.0258 5.01324C22.6757 5.10774 23.2473 5.44724 23.637 5.9699C24.0267 6.4914 24.19 7.13424 24.0967 7.77824L22.9895 15.4292C22.7807 16.8852 21.516 17.9831 20.046 17.9831H20.0402H7.31417H7.30483Z" fill="black"/>
<path fill-rule="evenodd" clip-rule="evenodd" d="M18.1715 11.0508H14.9375C14.4533 11.0508 14.0625 10.6588 14.0625 10.1758C14.0625 9.69278 14.4533 9.30078 14.9375 9.30078H18.1715C18.6545 9.30078 19.0465 9.69278 19.0465 10.1758C19.0465 10.6588 18.6545 11.0508 18.1715 11.0508Z" fill="black"/>
<path fill-rule="evenodd" clip-rule="evenodd" d="M6.8038 21.1523C7.15497 21.1523 7.43847 21.4358 7.43847 21.787C7.43847 22.1382 7.15497 22.4228 6.8038 22.4228C6.45147 22.4228 6.16797 22.1382 6.16797 21.787C6.16797 21.4358 6.45147 21.1523 6.8038 21.1523Z" fill="black"/>
<mask id="mask0_454_4297" style="mask-type:luminance" maskUnits="userSpaceOnUse" x="6" y="21" width="2" height="2">
<path fill-rule="evenodd" clip-rule="evenodd" d="M6.16797 21.787C6.16797 22.1393 6.45147 22.424 6.80497 22.424C7.15614 22.424 7.43964 22.1393 7.43964 21.787C7.43964 21.4358 7.15614 21.1523 6.80497 21.1523C6.45147 21.1523 6.16797 21.4358 6.16797 21.787Z" fill="white"/>
</mask>
<g mask="url(#mask0_454_4297)">
<path fill-rule="evenodd" clip-rule="evenodd" d="M0.335938 28.2555H13.2731V15.3184H0.335938V28.2555Z" fill="black"/>
</g>
<path fill-rule="evenodd" clip-rule="evenodd" d="M6.8015 21.548C6.66967 21.548 6.56233 21.6554 6.56233 21.7872C6.56233 22.052 7.04183 22.052 7.04183 21.7872C7.04183 21.6554 6.93333 21.548 6.8015 21.548ZM6.80264 23.2978C5.96964 23.2978 5.29297 22.62 5.29297 21.787C5.29297 20.954 5.96964 20.2773 6.80264 20.2773C7.63564 20.2773 8.31347 20.954 8.31347 21.787C8.31347 22.62 7.63564 23.2978 6.80264 23.2978Z" fill="black"/>
<path fill-rule="evenodd" clip-rule="evenodd" d="M19.964 21.1523C20.3151 21.1523 20.5998 21.4358 20.5998 21.787C20.5998 22.1382 20.3151 22.4228 19.964 22.4228C19.6116 22.4228 19.3281 22.1382 19.3281 21.787C19.3281 21.4358 19.6116 21.1523 19.964 21.1523Z" fill="black"/>
<mask id="mask1_454_4297" style="mask-type:luminance" maskUnits="userSpaceOnUse" x="19" y="21" width="2" height="2">
<path fill-rule="evenodd" clip-rule="evenodd" d="M19.3281 21.787C19.3281 22.1393 19.6116 22.424 19.964 22.424C20.314 22.424 20.5998 22.1393 20.5998 21.787C20.5998 21.4358 20.314 21.1523 19.964 21.1523C19.6116 21.1523 19.3281 21.4358 19.3281 21.787Z" fill="white"/>
</mask>
<g mask="url(#mask1_454_4297)">
<path fill-rule="evenodd" clip-rule="evenodd" d="M13.4961 28.2555H26.4344V15.3184H13.4961V28.2555Z" fill="black"/>
</g>
<path fill-rule="evenodd" clip-rule="evenodd" d="M19.9611 21.5481C19.8304 21.5481 19.7231 21.6554 19.7231 21.7872C19.7242 22.0544 20.2026 22.0521 20.2014 21.7872C20.2014 21.6554 20.0929 21.5481 19.9611 21.5481ZM19.9628 23.2978C19.1298 23.2978 18.4531 22.62 18.4531 21.787C18.4531 20.954 19.1298 20.2773 19.9628 20.2773C20.797 20.2773 21.4748 20.954 21.4748 21.787C21.4748 22.62 20.797 23.2978 19.9628 23.2978Z" fill="black"/>
</svg>
