<svg width="24" height="27" viewBox="0 0 24 27" fill="none" xmlns="http://www.w3.org/2000/svg">
<path d="M0.424 11.8733H1.53194L1.53185 26.5552C1.53185 26.8007 1.72149 26.9997 1.95581 26.9997H22.0441C22.2785 26.9997 22.4681 26.8007 22.4681 26.5552V11.8733H23.576C23.8104 11.8733 24 11.6743 24 11.4289V6.6125C24 6.36706 23.8104 6.16808 23.576 6.16808H17.2809C18.5525 5.66513 19.5166 4.94359 19.8109 3.98067C20.0332 3.25347 19.9384 2.11686 18.2227 0.832476C17.5776 0.349436 16.8849 0.216016 16.1654 0.435456C14.2822 1.00961 12.7047 3.98636 12 5.5268C11.2951 3.9865 9.7176 1.00977 7.8345 0.435456C7.1142 0.216756 6.4228 0.349536 5.7773 0.832376C4.0616 2.11686 3.96684 3.25338 4.18915 3.98058C4.48345 4.9435 5.4475 5.66503 6.7191 6.16798L0.42396 6.16789C0.18964 6.16789 0 6.36686 0 6.61231V11.4287C0 11.6741 0.18958 11.8733 0.424 11.8733ZM2.37977 11.8733H9.476V26.1108H2.37977V11.8733ZM10.3239 26.1108V11.8733H13.6758V26.1108H10.3239ZM13.6758 7.05693V10.9845H10.3239V7.05693H13.6758ZM21.62 26.1108H14.5237V11.8733H21.62V26.1108ZM23.1518 10.9845H14.5236V7.05693H23.1518V10.9845ZM16.4024 1.28864C16.5452 1.24521 16.6855 1.22336 16.8239 1.22336C17.134 1.22336 17.4329 1.33363 17.7297 1.55584C18.4468 2.09266 19.2499 2.90237 19.0033 3.70935C18.6083 5.00162 15.8802 6.03148 12.6525 6.15547C13.3608 4.55174 14.8734 1.75464 16.4024 1.28864ZM4.996 3.70939C4.74922 2.90239 5.55243 2.0927 6.2695 1.5556C6.5664 1.33357 6.8653 1.22338 7.1754 1.22338C7.3137 1.22338 7.454 1.24533 7.5969 1.28866C9.1259 1.75456 10.6383 4.55181 11.3467 6.1553C8.119 6.03141 5.39102 5.00175 4.996 3.70939ZM0.84755 7.05693H9.4757V10.9845H0.84755V7.05693Z" fill="#006937"/>
</svg>
