<svg width="25" height="24" viewBox="0 0 25 24" fill="none" xmlns="http://www.w3.org/2000/svg">
<mask id="mask0_454_4321" style="mask-type:luminance" maskUnits="userSpaceOnUse" x="0" y="0" width="25" height="24">
<path fill-rule="evenodd" clip-rule="evenodd" d="M0.332031 0.5H24.2166V23.2512H0.332031V0.5Z" fill="white"/>
</mask>
<g mask="url(#mask0_454_4321)">
<path fill-rule="evenodd" clip-rule="evenodd" d="M2.46133 11.1435C4.097 16.2325 10.5592 20.3474 12.2765 21.3659C13.9997 20.3369 20.5085 16.1765 22.0917 11.1482C23.1312 7.89787 22.1663 3.7807 18.3327 2.5452C16.4753 1.94904 14.3088 2.31187 12.8132 3.4692C12.5005 3.70954 12.0665 3.7142 11.7515 3.4762C10.1672 2.28504 8.0975 1.9362 6.211 2.5452C2.38317 3.77954 1.42183 7.8967 2.46133 11.1435ZM12.2763 23.2513C12.1316 23.2513 11.9881 23.2163 11.8575 23.1451C11.4923 22.9456 2.89048 18.2043 0.793981 11.678C0.792814 11.678 0.792814 11.6768 0.792814 11.6768C-0.523186 7.5678 0.942148 2.40414 5.67298 0.879304C7.89432 0.160638 10.3151 0.476804 12.2728 1.7123C14.1698 0.512971 16.6898 0.181638 18.8668 0.879304C23.6023 2.40647 25.0723 7.56897 23.7575 11.6768C21.7287 18.1285 13.0638 22.941 12.6963 23.1428C12.5656 23.2151 12.421 23.2513 12.2763 23.2513Z" fill="black"/>
</g>
<path fill-rule="evenodd" clip-rule="evenodd" d="M19.1772 9.395C18.7257 9.395 18.343 9.0485 18.3057 8.59117C18.2287 7.63217 17.587 6.8225 16.6735 6.52733C16.2127 6.378 15.9607 5.8845 16.1089 5.426C16.2594 4.96634 16.7482 4.71667 17.2102 4.86134C18.8004 5.37584 19.9145 6.784 20.051 8.44883C20.0895 8.93067 19.7314 9.353 19.2495 9.3915C19.225 9.39383 19.2017 9.395 19.1772 9.395Z" fill="black"/>
</svg>
