<svg width="19" height="25" viewBox="0 0 19 25" fill="none" xmlns="http://www.w3.org/2000/svg">
<path d="M9.26977 0.664062H10.6901C13.2231 0.995481 15.7324 2.13177 17.3185 4.19131C18.3364 5.49331 18.8809 7.10306 18.9993 8.73648V9.87277C18.8099 12.027 18.005 14.0628 16.9634 15.9093C15.1406 19.1051 12.5366 21.7565 9.95628 24.3368H9.90894C7.1629 21.9459 4.93766 19.0105 2.97282 15.9567C1.81285 14.1339 0.960631 12.0507 0.794922 9.87277V8.90219C0.984304 5.80105 2.97282 2.91298 5.7662 1.63465C6.85515 1.09017 8.06246 0.829772 9.26977 0.664062ZM6.09762 3.24439C4.27482 4.23865 2.85445 6.06145 2.52303 8.12098C2.26263 9.89644 2.73609 11.6719 3.44627 13.258C4.96133 16.6669 7.39962 19.5076 9.90894 22.2063C9.97996 22.1589 10.0983 22.0879 10.1457 22.0406C12.3709 19.5549 14.5488 16.9509 16.1585 14.0155C17.0818 12.2637 17.6263 10.2752 17.3422 8.28669C17.0344 6.01411 15.401 4.04927 13.3652 3.03134C11.0926 1.87137 8.29919 2.03708 6.09762 3.24439ZM9.41181 5.46963C10.9979 5.28025 12.7497 5.99044 13.5545 7.4108C14.4068 9.06789 14.028 11.3878 12.4656 12.4768C10.4297 13.9445 7.06821 13.2106 6.05028 10.867C5.5058 9.70706 5.78988 8.38138 6.35802 7.31611C6.99719 6.25084 8.2045 5.61167 9.41181 5.46963ZM9.05672 7.12673C8.34654 7.36346 7.70737 7.90793 7.49432 8.66546C7.06821 10.0622 8.22817 11.7192 9.71956 11.6956C11.1162 11.8376 12.6076 10.7013 12.4419 9.20993C12.4419 7.55284 10.5244 6.55858 9.05672 7.12673Z" fill="#333E48"/>
</svg>
