<svg width="25" height="25" viewBox="0 0 25 25" fill="none" xmlns="http://www.w3.org/2000/svg">
<path d="M5.71347 16.4462C8.07347 19.2845 10.8879 21.4851 14.1568 23.0478C15.8949 23.8929 17.4656 24.3633 18.8689 24.459H19.2037C20.4156 24.459 21.4282 24.0284 22.2414 23.1674C22.2414 23.1514 22.2494 23.1434 22.2653 23.1434C22.4248 22.9521 22.6799 22.681 23.0308 22.3302L23.2221 22.1389C23.4613 21.9156 23.6925 21.6844 23.9158 21.4452C24.442 20.8871 24.7051 20.2891 24.7051 19.6513C24.7051 19.0134 24.442 18.4234 23.9158 17.8813L20.9259 14.8914C20.4316 14.3652 19.8535 14.1021 19.1918 14.1021C18.53 14.1021 17.936 14.3652 17.4098 14.8914L15.6398 16.6614L15.1614 16.4222C14.9541 16.3266 14.7708 16.2229 14.6113 16.1113C13.0327 15.1067 11.5337 13.7433 10.1145 12.0212C9.42887 11.1601 8.92657 10.3548 8.60766 9.60534C8.92657 9.33426 9.36509 8.90372 9.92319 8.31372C10.0029 8.24994 10.1066 8.14629 10.2341 8.00278L10.3777 7.85926C10.9358 7.33305 11.2148 6.73906 11.2148 6.07731C11.2148 5.41555 10.9358 4.82156 10.3777 4.29535L8.9186 2.81238C8.83887 2.73265 8.72725 2.62103 8.58374 2.47751L8.4163 2.31008C8.04955 1.91143 7.70671 1.57657 7.38779 1.30548C6.87752 0.795216 6.30347 0.540079 5.66563 0.540079C5.02779 0.540079 4.43779 0.795216 3.89563 1.30548L2.02996 3.17116C1.34428 3.85683 0.969551 4.67008 0.905768 5.61089C0.810092 6.77494 1.04131 8.09048 1.59942 9.55751C2.02996 10.7375 2.58009 11.8856 3.24982 13.0018C3.91955 14.118 4.74077 15.2662 5.71347 16.4462ZM2.10171 5.70656C2.18144 5.02089 2.44455 4.45481 2.89104 4.00832L4.73279 2.16656C5.03577 1.89548 5.34272 1.75994 5.65367 1.75994C5.96462 1.75994 6.2636 1.90346 6.55063 2.19049C6.77387 2.39778 7.10076 2.7167 7.5313 3.14724C7.64293 3.27481 7.81036 3.45021 8.0336 3.67346L9.51657 5.15643C9.83549 5.47535 9.99495 5.78629 9.99495 6.08927C9.99495 6.39224 9.83549 6.70318 9.51657 7.0221L9.06211 7.47656C8.56779 7.98683 8.11333 8.43332 7.69874 8.81602C7.68279 8.81602 7.67482 8.82399 7.67482 8.83994C7.48347 9.01535 7.37184 9.2067 7.33995 9.41399C7.32401 9.55751 7.34793 9.73291 7.41171 9.94021C7.42766 9.94021 7.43563 9.94021 7.43563 9.94021V9.96413C7.80238 10.8571 8.38441 11.8059 9.18171 12.8105C10.6647 14.6443 12.2513 16.0953 13.9416 17.1637C14.1648 17.2913 14.3881 17.4029 14.6113 17.4986L15.2093 17.8334C15.3528 17.9132 15.5122 17.953 15.6877 17.953C15.9587 17.953 16.2059 17.8414 16.4291 17.6182L18.2709 15.7764C18.5739 15.4734 18.8808 15.322 19.1918 15.322C19.5027 15.322 19.7937 15.4734 20.0648 15.7764L23.0547 18.7424C23.6606 19.3483 23.6526 19.9782 23.0308 20.632C22.951 20.7276 22.8075 20.8711 22.6002 21.0625L22.3849 21.2778C21.9863 21.6605 21.6355 22.0193 21.3325 22.3541C20.7903 22.9601 20.0808 23.263 19.2037 23.263C19.0921 23.263 19.0124 23.2551 18.9645 23.2391C17.7208 23.1594 16.2936 22.7368 14.6831 21.9714C11.6055 20.4884 8.92657 18.3916 6.6463 15.6807C4.86036 13.5121 3.55279 11.3355 2.7236 9.15089C2.24523 7.84332 2.03793 6.69521 2.10171 5.70656Z" fill="#222529"/>
</svg>
