<svg width="20" height="26" viewBox="0 0 20 26" fill="none" xmlns="http://www.w3.org/2000/svg">
<path d="M10.0508 11C12.8595 11 15.1365 8.76142 15.1365 6C15.1365 3.23858 12.8595 1 10.0508 1C7.242 1 4.96505 3.23858 4.96505 6C4.96505 8.76142 7.242 11 10.0508 11Z" stroke="#222020" stroke-width="1.42857" stroke-linecap="round" stroke-linejoin="round"/>
<path d="M0.896484 25V23.9158C0.912679 22.3914 1.3216 20.8958 2.08505 19.5689C2.84852 18.242 3.9416 17.127 5.26219 16.328C6.58281 15.529 8.08785 15.0722 9.63673 15.0001C9.77482 14.9936 9.91287 14.9903 10.0508 14.99C10.1886 14.9903 10.3267 14.9936 10.4648 15.0001C12.0137 15.0722 13.5187 15.529 14.8393 16.328C15.5987 16.7875 16.2829 17.3514 16.8724 18.0001" stroke="#222020" stroke-width="1.42857" stroke-linecap="round" stroke-linejoin="round"/>
</svg>
