<svg width="24" height="24" viewBox="0 0 24 24" fill="none" xmlns="http://www.w3.org/2000/svg">
<g clip-path="url(#clip0_454_4290)">
<path d="M19.0043 16.3882L13.614 21.0682V17.4029L19.0043 12.7222V16.3882ZM11.457 12.7657L21.1605 4.44141V9.57291L11.457 17.8972V12.7657Z" fill="#DF1E1E"/>
<path d="M11.2292 21L21.9339 18.8787V11.6795L11.2292 13.8008V21ZM-1 4.70127L25 0V9.25629L-0.998936 13.9597L-1 4.70127Z" fill="#ED3E3E"/>
<path d="M16.9205 4.36328L14.8355 4.76603V9.63128L16.9205 9.22853V8.53253L15.5997 8.78753V7.36328L16.6497 7.16003V6.46478L15.5997 6.66728V5.31278L16.9212 5.05778V4.36328H16.9205ZM13.238 5.07578L12.473 5.22353V10.088L14.4965 9.69728V9.00128L13.238 9.24428V5.07578ZM11.3457 5.44178L10.2282 5.65703L9.4482 10.6723L10.1502 10.5365L10.2837 9.62828L11.2212 9.44828L11.3532 10.3048L12.125 10.1555L11.3457 5.44178ZM8.3487 5.98478C8.26051 5.98781 8.17271 5.9981 8.0862 6.01553C7.34295 6.15953 6.9612 6.67928 6.9612 7.45703C6.9612 8.84753 8.4552 8.74478 8.4552 9.74528C8.4552 10.0925 8.30145 10.2478 8.05845 10.295C7.81545 10.3423 7.6632 10.2463 7.6632 9.89903V9.55178L6.93945 9.69128V9.98978C6.93945 10.7683 7.3287 11.1388 8.07945 10.9933C8.82945 10.8485 9.2187 10.3273 9.2187 9.54878C9.2187 8.15903 7.7247 8.26028 7.7247 7.25978C7.7247 6.91178 7.86345 6.75428 8.1072 6.70703C8.3502 6.65978 8.4897 6.76553 8.4897 7.11278V7.31378L9.2127 7.17428V7.02053C9.2127 6.33953 8.9202 5.96978 8.3487 5.98478ZM10.7487 6.41903L11.117 8.80778L10.3805 8.95028L10.748 6.41903H10.7487Z" fill="white"/>
</g>
<defs>
<clipPath id="clip0_454_4290">
<rect width="24" height="24" fill="white"/>
</clipPath>
</defs>
</svg>
